# xmcd CD database file
# Copyright (C) 1997 Ti Kan
# 
# Track frame offsets:
#     150
#     8137
#     15747
#     29142
#     37855
#     46757
#     52225
#     57800
#     72355
#     79832
#     90990
#     107790
#     123125
#     152965
#     165590
#     177055
#     183660
#     194757
#     213152
#     222660
#     233917
#     243602
#     252192
#     262800
#     266160
#     275247
#     281970
#     290330
#     297887
#     309582
#     332390
# 
# Disc length: 4626 seconds
# 
# Revision: 1
# Processed by: cddbd v1.4b41PL1 Copyright (c) Steve Scherf et al.
# Submitted via: DiscPlay 4.0.3
# 
DISCID=d312101f
DTITLE=Various Artist - CHEAPO Crypt Sampler # 2 !
DYEAR=1900
DGENRE=
TTITLE0=Revelators - Serve The Man
TTITLE1=Oblivians - She's a Hole
TTITLE2=DM Bob and The Deficits - Two headed woman
TTITLE3=Bantam Rooster - Miss Luxury
TTITLE4=Devil Dogs - Cheescake
TTITLE5=Los Ass-Draggers - College Rock Shit
TTITLE6=Fayette County Hookers - Satan's Highway
TTITLE7=Nine Pound Hammer - Steamroller
TTITLE8=New Bomb Turks - Fingernail Chomp
TTITLE9=Lazy Cowgirls - Time and Money
TTITLE10=The Gories - Ghostrider
TTITLE11=Oblivians - Feel Alright
TTITLE12=Raunch Hands - Everybody Loves Yo Mama
TTITLE13=DM Bob and The Deficits - Cowpower
TTITLE14=The Wyld - Goin' Places
TTITLE15=Country Teasers - Black Change
TTITLE16=Cheater Slick - Hook or Crook
TTITLE17=Chrome Cranks - Shine it on
TTITLE18=The Beguiled - I walk alone
TTITLE19=Country Teaser - Mosquito
TTITLE20=Teengenerate - Right Now
TTITLE21=The Revelators - Earthshaker, Yeah !
TTITLE22=New Bomb Turks - Summer Romance
TTITLE23=Los Ass-Draggers - Shitty Instro
TTITLE24=Los Primos - On my floors
TTITLE25=Mighty Caesars - Got to get you Outside my head
TTITLE26=Bantam Rooster - Shit Town
TTITLE27=Pagans - Dead End America
TTITLE28=Oblivians - Viet Nam War Blues
TTITLE29=Lyres - Let's talk about girls
TTITLE30=Lazy Cowgirls - I'll tell you why
EXTD=
EXTT0=
EXTT1=
EXTT2=
EXTT3=
EXTT4=
EXTT5=
EXTT6=
EXTT7=
EXTT8=
EXTT9=
EXTT10=
EXTT11=
EXTT12=
EXTT13=
EXTT14=
EXTT15=
EXTT16=
EXTT17=
EXTT18=
EXTT19=
EXTT20=
EXTT21=
EXTT22=
EXTT23=
EXTT24=
EXTT25=
EXTT26=
EXTT27=
EXTT28=
EXTT29=
EXTT30=
PLAYORDER=
